inDegrees=yes
name=ik_appendData_table_yaw
DataType=double
version=3
OpenSimVersion=4.5
endheader
time	pelvis_tilt	pelvis_list	pelvis_rotation	pelvis_tx	pelvis_ty	pelvis_tz	hip_flexion_r	hip_adduction_r	hip_rotation_r	knee_angle_r	knee_angle_r_beta	ankle_angle_r	subtalar_angle_r	mtp_angle_r	hip_flexion_l	hip_adduction_l	hip_rotation_l	knee_angle_l	knee_angle_l_beta	ankle_angle_l	subtalar_angle_l	mtp_angle_l	lumbar_extension	lumbar_bending	lumbar_rotation	arm_flex_r	arm_add_r	arm_rot_r	elbow_flex_r	pro_sup_r	wrist_flex_r	wrist_dev_r	arm_flex_l	arm_add_l	arm_rot_l	elbow_flex_l	pro_sup_l	wrist_flex_l	wrist_dev_l
75	-2.250319915077557	89.91088504398265	-4.703747185614371	0	0.9399999999999999	0	44.68478140123104	-10.02528399139832	0	59.95748452759955	1.046455516220169	-5.002980957548969	0	0	44.68478140123104	-10.02528399139832	0	59.95748452759955	1.046455516220169	-5.002980957548969	0	0	1.14580260506159	0.1375574634357125	5.82119870532393	0	-12.71112380643276	0	75.90288396612391	44.9586785677399	0	0	-0.5052064185476445	1.677828511797808	2.287116404738473	0.09197323604374559	44.9586785677399	0	0
76	-2.247301009685156	89.91090641745798	-4.706932389550772	0	0.9399999999999999	0	44.6848646523214	-10.02526056295346	0	59.95749333816209	1.046455669993494	-5.002977351635284	0	0	44.6848646523214	-10.02526056295346	0	59.95749333816209	1.046455669993494	-5.002977351635284	0	0	1.148119122345651	0.1383956478385988	5.8211877799011	0	-12.71143262473147	0	75.90264552654583	44.95870883437785	0	0	-0.5031504323732783	1.676941581210884	2.287120216452665	0.09199957348977793	44.95870883437785	0	0
77	-2.245237597253522	89.91232362393143	-4.707237793998206	0	0.9399999999999999	0	44.68489411645393	-10.02525221987154	0	59.95749643641226	1.046455724068161	-5.002976066556601	0	0	44.68489411645393	-10.02525221987154	0	59.95749643641226	1.046455724068161	-5.002976066556601	0	0	1.148786197715826	0.09418227171699069	5.82107295583084	0	-12.71154143442587	0	75.9025611381488	44.9587196033709	0	0	-0.6247241515301496	2.186646067015023	2.286669810974705	0.09580165611183804	44.9587196033709	0	0
78	-2.243477017137998	89.90924574854344	-4.709204023725566	0	0.9399999999999999	0	44.68491549925358	-10.02524623830378	0	59.95749870739363	1.046455763704263	-5.00297514734929	0	0	44.68491549925358	-10.02524623830378	0	59.95749870739363	1.046455763704263	-5.00297514734929	0	0	1.166897977709114	0.1811446749346465	5.81971768094522	0	-12.71162096433644	0	75.90249989570466	44.95872734059972	0	0	-0.6544309539946083	2.289268327929837	2.286653709696816	0.09594003819291255	44.95872734059972	0	0
79	-2.240704576414023	89.91028326460047	-4.712794046749854	0	0.9399999999999999	0	44.68500872763874	-10.02522002457505	0	59.95750857334198	1.046455935897546	-5.002971114399314	0	0	44.68500872763874	-10.02522002457505	0	59.95750857334198	1.046455935897546	-5.002971114399314	0	0	1.133695296349387	0.1101172115928759	5.821936935605529	0	-12.71196682894031	0	75.90223288017327	44.9587612147067	0	0	-0.6146255040123543	2.202919893117235	2.287521552416868	0.09556868948235289	44.9587612147067	0	0
80	-2.236627416554601	89.91084267873924	-4.716041949904533	0	0.9399999999999999	0	44.68512515462804	-10.0251873377566	0	59.95752090477072	1.046456151121579	-5.002966087712378	0	0	44.68512515462804	-10.0251873377566	0	59.95752090477072	1.046456151121579	-5.002966087712378	0	0	1.146520773980685	0.1348507839442383	5.815722750789879	0	-12.71239906324215	0	75.9018994215955	44.95880346747926	0	0	-0.6108288535071041	2.230616471031419	1.714834737695387	0.09667460397803364	44.95880346747926	0	0
81	-2.233943884936177	89.91063897243922	-4.719403759227756	0	0.9399999999999999	0	44.68520143720266	-10.02516593114541	0	59.9575289804722	1.046456292069159	-5.002962796883914	0	0	44.68520143720266	-10.02516593114541	0	59.9575289804722	1.046456292069159	-5.002962796883914	0	0	1.145128096242675	0.1332676756767611	5.8210372718126	0	-12.71268219918119	0	75.90168094064796	44.95883114478958	0	0	-0.6088128083394497	2.227014006480986	1.71509205504973	0.09618133010887604	44.95883114478958	0	0
82	-2.230777786101573	89.91070388996732	-4.722283645176231	0	0.9399999999999999	0	44.68528369284542	-10.02514286076672	0	59.95753768832255	1.046456444049818	-5.002959251182083	0	0	44.68528369284542	-10.02514286076672	0	59.95753768832255	1.046456444049818	-5.002959251182083	0	0	1.146334312762581	0.1371351914261759	5.82103395812199	0	-12.71298752673575	0	75.90144535225207	44.95886097827712	0	0	-0.610397196562842	2.231287340532366	1.714944838676471	0.09660404839187346	44.95886097827712	0	0
